Coordinates
version=1
nRows=36
nColumns=30
inDegrees=yes

Units are S.I. units (second, meters, Newtons, ...)
Angles are in degrees.

endheader
time	floatyaw	floatroll	floatpitch	floatx	floaty	floatz	pro_sup_l	deviation_l	flexion_l	cmc_flexion_l	cmc_abduction_l	mp_flexion_l	ip_flexion_l	2mcp_flexion_l	2mcp_abduction_l	2pm_flexion_l	2md_flexion_l	3mcp_flexion_l	3mcp_abduction_l	3pm_flexion_l	3md_flexion_l	4mcp_flexion_l	4mcp_abduction_l	4pm_flexion_l	4md_flexion_l	5mcp_flexion_l	5mcp_abduction_l	5pm_flexion_l	5md_flexion_l
-0.995000	-0.845308	-4.283240	94.249796	-0.006873	-0.268724	-0.000748	89.858851	-0.658723	-2.020800	26.142413	3.052789	-18.056577	-32.419823	18.768440	5.775986	32.845848	20.598069	8.275103	4.172701	35.770461	21.609173	-1.752258	-3.515952	52.682684	33.613559	-19.484259	-9.002043	59.910699	49.408517
-0.985000	-0.845308	-4.283240	94.249796	-0.006878	-0.268724	-0.000750	89.828855	-0.669459	-1.993581	26.108644	3.046181	-18.039729	-32.369156	18.714050	5.758184	32.884528	20.611193	8.204504	4.180216	35.806958	21.642514	-1.825681	-3.515882	52.712899	33.608301	-19.575742	-8.981875	59.901739	49.406334
-0.975000	-0.845308	-4.283240	94.249796	-0.006874	-0.268713	-0.000764	89.813104	-0.672254	-1.971635	26.100915	3.032231	-18.033868	-32.344196	18.661079	5.742229	32.930755	20.632849	8.157315	4.184949	35.836123	21.670999	-1.872713	-3.516543	52.742143	33.593736	-19.641910	-8.957070	59.916914	49.384424
-0.965000	-0.845308	-4.283240	94.249796	-0.006859	-0.268692	-0.000786	89.815314	-0.666605	-1.960624	26.120829	3.018692	-18.041348	-32.354852	18.623489	5.729000	32.975672	20.657680	8.142815	4.186869	35.856391	21.688025	-1.880653	-3.517369	52.766768	33.571054	-19.662635	-8.937391	59.946475	49.349678
-0.955000	-0.845308	-4.283240	94.249796	-0.006836	-0.268667	-0.000810	89.833162	-0.654777	-1.961370	26.159880	3.010250	-18.056402	-32.398602	18.605615	5.719728	33.014229	20.679426	8.157903	4.185697	35.869800	21.690470	-1.851048	-3.517837	52.785054	33.542676	-19.634078	-8.927701	59.978446	49.316811
-0.945000	-0.845308	-4.283240	94.249796	-0.006812	-0.268643	-0.000830	89.859477	-0.640727	-1.970335	26.201928	3.007100	-18.068480	-32.459373	18.603085	5.715385	33.043946	20.693014	8.190696	4.180859	35.878621	21.679347	-1.797997	-3.517846	52.796268	33.511818	-19.570648	-8.925855	60.004212	49.300374
-0.935000	-0.845308	-4.283240	94.249796	-0.006792	-0.268626	-0.000843	89.886217	-0.628123	-1.982496	26.230127	3.006018	-18.068137	-32.513519	18.607790	5.715983	33.063317	20.696535	8.228148	4.172057	35.882653	21.658607	-1.740261	-3.517608	52.800227	33.481707	-19.496762	-8.925137	60.021199	49.306312
-0.925000	-0.845308	-4.283240	94.249796	-0.006780	-0.268620	-0.000850	89.908584	-0.618567	-1.994352	26.234418	3.003471	-18.051760	-32.539822	18.613278	5.720348	33.071720	20.692010	8.262488	4.159980	35.879736	21.633327	-1.691996	-3.517208	52.797996	33.454821	-19.433502	-8.919131	60.032760	49.327630
-0.915000	-0.845308	-4.283240	94.249796	-0.006776	-0.268624	-0.000855	89.926543	-0.611083	-2.005101	26.214720	2.998772	-18.022337	-32.527138	18.617780	5.726513	33.070079	20.684100	8.292959	4.146522	35.868561	21.608234	-1.657458	-3.516346	52.792525	33.432679	-19.388702	-8.905649	60.045777	49.347077
-0.905000	-0.845308	-4.283240	94.249796	-0.006777	-0.268634	-0.000864	89.943185	-0.603062	-2.015657	26.178408	2.994617	-17.986462	-32.476085	18.623961	5.732364	33.060591	20.677283	8.322873	4.134186	35.850738	21.586884	-1.632169	-3.514554	52.787837	33.416381	-19.356461	-8.887448	60.066786	49.345866
-0.895000	-0.845308	-4.283240	94.249796	-0.006776	-0.268641	-0.000881	89.961643	-0.592022	-2.026789	26.134862	2.994308	-17.950191	-32.396186	18.636152	5.736127	33.045229	20.673421	8.354870	4.124951	35.830215	21.571503	-1.608884	-3.511731	52.786971	33.407341	-19.325578	-8.869883	60.098363	49.313535
-0.885000	-0.845308	-4.283240	94.249796	-0.006771	-0.268641	-0.000908	89.982762	-0.577190	-2.037934	26.091059	2.997998	-17.916464	-32.301787	18.656855	5.736645	33.024398	20.671571	8.387764	4.119323	35.810777	21.563386	-1.584031	-3.508379	52.790339	33.407398	-19.290786	-8.857601	60.137808	49.253054
-0.875000	-0.845308	-4.283240	94.249796	-0.006766	-0.268633	-0.000939	90.004543	-0.560162	-2.047328	26.050230	3.001495	-17.885111	-32.208433	18.684471	5.733657	32.997143	20.670016	8.416793	4.116243	35.793846	21.563444	-1.560595	-3.505243	52.795937	33.417880	-19.259193	-8.852598	60.178829	49.178583
-0.865000	-0.845308	-4.283240	94.249796	-0.006762	-0.268621	-0.000965	90.023109	-0.544264	-2.053010	26.013167	2.999041	-17.854864	-32.129706	18.713486	5.728031	32.962939	20.668597	8.436540	4.113959	35.778275	21.572254	-1.546144	-3.502651	52.801264	33.438129	-19.247587	-8.854449	60.214856	49.108326
-0.855000	-0.845308	-4.283240	94.249796	-0.006765	-0.268609	-0.000980	90.034297	-0.532918	-2.053751	25.980443	2.988065	-17.825947	-32.074454	18.737005	5.721644	32.923606	20.669208	8.444144	4.111249	35.762196	21.589395	-1.547810	-3.500205	52.805486	33.464611	-19.272235	-8.861895	60.241767	49.057293
-0.845000	-0.845308	-4.283240	94.249796	-0.006772	-0.268600	-0.000983	90.035216	-0.527843	-2.049430	25.953807	2.972140	-17.801696	-32.045088	18.750273	5.716683	32.883627	20.674174	8.440725	4.108127	35.745471	21.612633	-1.567694	-3.497192	52.810453	33.491618	-19.337685	-8.874320	60.258677	49.033227
-0.835000	-0.845308	-4.283240	94.249796	-0.006781	-0.268593	-0.000979	90.025422	-0.528168	-2.041020	25.936093	2.959599	-17.788048	-32.037907	18.753154	5.714698	32.848544	20.684090	8.430518	4.105599	35.730957	21.637814	-1.601483	-3.493437	52.820088	33.513451	-19.431653	-8.892145	60.266848	49.035963
-0.825000	-0.845308	-4.283240	94.249796	-0.006785	-0.268583	-0.000976	90.007461	-0.530997	-2.030489	25.930036	2.958335	-17.790778	-32.045661	18.749869	5.716003	32.822965	20.696898	8.418481	4.104770	35.723840	21.659876	-1.640961	-3.489891	52.838756	33.526922	-19.529210	-8.916050	60.267720	49.059188
-0.815000	-0.845308	-4.283240	94.249796	-0.006782	-0.268570	-0.000979	89.986343	-0.533122	-2.020451	25.936828	2.970133	-17.811685	-32.061159	18.745776	5.719803	32.810114	20.708809	8.407457	4.105918	35.729759	21.674643	-1.678733	-3.488370	52.869562	33.532540	-19.604110	-8.945622	60.261517	49.093655
-0.805000	-0.845308	-4.283240	94.249796	-0.006770	-0.268556	-0.000987	89.967799	-0.532936	-2.013362	25.955409	2.988660	-17.846156	-32.080169	18.743085	5.725028	32.813171	20.716431	8.396214	4.108066	35.752977	21.680597	-1.711803	-3.490573	52.913020	33.533476	-19.641014	-8.978362	60.247589	49.130905
-0.795000	-0.845308	-4.283240	94.249796	-0.006754	-0.268547	-0.000996	89.956024	-0.531555	-2.010531	25.983234	3.003302	-17.884402	-32.102531	18.738674	5.731547	32.836440	20.718951	8.379897	4.109296	35.795087	21.679668	-1.741048	-3.497051	52.965811	33.532783	-19.641688	-9.009689	60.226225	49.166056
-0.785000	-0.845308	-4.283240	94.249796	-0.006736	-0.268548	-0.000997	89.952025	-0.532592	-2.011543	26.017877	3.007108	-17.916372	-32.131138	18.726187	5.740948	32.883820	20.719095	8.353520	4.107726	35.853748	21.676328	-1.766692	-3.506898	53.019586	33.530713	-19.621543	-9.034009	60.200011	49.198079
-0.775000	-0.845308	-4.283240	94.249796	-0.006718	-0.268557	-0.000981	89.953336	-0.540565	-2.014294	26.057503	3.003717	-17.937365	-32.168824	18.701652	5.755924	32.954116	20.721971	8.317027	4.102635	35.921211	21.675055	-1.783896	-3.518349	53.061141	33.524297	-19.598506	-9.046442	60.172531	49.226919
-0.765000	-0.845308	-4.283240	94.249796	-0.006699	-0.268562	-0.000939	89.954902	-0.558466	-2.015335	26.098871	3.007988	-17.950456	-32.214072	18.669102	5.778004	33.036138	20.732050	8.278556	4.095078	35.983849	21.677473	-1.783450	-3.529678	53.076056	33.510076	-19.580618	-9.044565	60.144253	49.248780
-0.755000	-0.845308	-4.283240	94.249796	-0.006678	-0.268547	-0.000867	89.950473	-0.585470	-2.010336	26.134209	3.038846	-17.963864	-32.257762	18.642018	5.804980	33.108384	20.750002	8.252815	4.087617	36.024797	21.681241	-1.758599	-3.539635	53.055900	33.488437	-19.559474	-9.029329	60.108358	49.252773
-0.745000	-0.845308	-4.283240	94.249796	-0.006651	-0.268494	-0.000762	89.934081	-0.615836	-1.994987	26.150277	3.108177	-17.984802	-32.283563	18.638808	5.830404	33.145779	20.771461	8.254605	4.083347	36.030171	21.681795	-1.712626	-3.547229	53.004921	33.466009	-19.513116	-9.004656	60.050451	49.222309
-0.735000	-0.845308	-4.283240	94.249796	-0.006613	-0.268397	-0.000626	89.901536	-0.639894	-1.966608	26.131837	3.212942	-18.013900	-32.273141	18.674518	5.846344	33.130577	20.788363	8.291193	4.084681	35.995809	21.675841	-1.659487	-3.551395	52.939944	33.453084	-19.416925	-8.975927	59.953805	49.141845
-0.725000	-0.845308	-4.283240	94.249796	-0.006560	-0.268258	-0.000466	89.851801	-0.647274	-1.925722	26.068170	3.335984	-18.044064	-32.214447	18.753607	5.847755	33.060778	20.791722	8.358323	4.092377	35.929691	21.663929	-1.615229	-3.551226	52.881145	33.456601	-19.257215	-8.948039	59.807829	49.005639
-0.715000	-0.845308	-4.283240	94.249796	-0.006489	-0.268091	-0.000286	89.787792	-0.631192	-1.876355	25.958579	3.454943	-18.064421	-32.108729	18.867900	5.835181	32.950706	20.774393	8.442174	4.105164	35.847727	21.650335	-1.586603	-3.546749	52.839447	33.473495	-19.041058	-8.923534	59.615220	48.823403
-0.705000	-0.845308	-4.283240	94.249796	-0.006400	-0.267910	-0.000087	89.716168	-0.591495	-1.824627	25.813509	3.552923	-18.066414	-31.971715	19.000516	5.813909	32.823780	20.733335	8.525980	4.120146	35.765546	21.640686	-1.566069	-3.539466	52.810294	33.490078	-18.797196	-8.901332	59.394083	48.619617
-0.695000	-0.845308	-4.283240	94.249796	-0.006297	-0.267727	0.000131	89.645987	-0.534546	-1.776629	25.650879	3.624205	-18.048041	-31.827364	19.133397	5.790660	32.702037	20.671241	8.597971	4.133943	35.691512	21.639021	-1.536380	-3.531848	52.778508	33.489044	-18.566411	-8.877012	59.173520	48.426726
-0.685000	-0.845308	-4.283240	94.249796	-0.006184	-0.267544	0.000370	89.586451	-0.470035	-1.736893	25.489397	3.672934	-18.014056	-31.696945	19.254798	5.770424	32.597750	20.596511	8.657269	4.144146	35.624497	21.645573	-1.480278	-3.525873	52.729866	33.460021	-18.385122	-8.845301	58.983901	48.275219
-0.675000	-0.845308	-4.283240	94.249796	-0.006064	-0.267360	0.000628	89.544260	-0.406825	-1.707914	25.341337	3.707763	-17.972617	-31.588867	19.363315	5.755262	32.510270	20.520412	8.715186	4.150459	35.556311	21.655925	-1.388940	-3.521628	52.660624	33.407298	-18.270777	-8.803950	58.845952	48.184613
-0.665000	-0.845308	-4.283240	94.249796	-0.005935	-0.267171	0.000907	89.521476	-0.350222	-1.690172	25.207442	3.736957	-17.930586	-31.494205	19.466444	5.745145	32.428425	20.452139	8.790623	4.154885	35.476579	21.662270	-1.265997	-3.517230	52.579173	33.350581	-18.217482	-8.756693	58.764593	48.158919
-0.655000	-0.845308	-4.283240	94.249796	-0.005792	-0.266977	0.001208	89.515046	-0.301617	-1.682027	25.076717	3.766747	-17.890359	-31.389976	19.574403	5.739716	32.336921	20.394656	8.900693	4.160796	35.377865	21.657145	-1.126581	-3.510465	52.499746	33.318887	-18.203366	-8.712930	58.731580	48.187978
-0.645000	-0.845308	-4.283240	94.249796	-0.005630	-0.266777	0.001532	89.518706	-0.259819	-1.679582	24.932561	3.802631	-17.850205	-31.249022	19.693039	5.739617	32.224150	20.344227	9.050698	4.171379	35.259654	21.638393	-0.991488	-3.501456	52.432509	33.340690	-18.203155	-8.683444	58.735829	48.253303
